<svg width="31" height="30" viewBox="0 0 31 30" fill="none" xmlns="http://www.w3.org/2000/svg">
<path d="M12.4242 2.79709C12.5806 1.01282 14.7147 -0.366885 17.0148 0.0872924L17.6428 0.213241C18.7568 0.434604 19.7457 1.08343 20.0777 2.05476C20.607 3.61193 21.3601 6.84652 20.2269 10.6612C20.5812 10.6224 20.9366 10.5899 21.2927 10.5639C23.0082 10.4399 25.3084 10.4265 27.3462 10.9646C28.5926 11.2948 29.7378 12.2642 30.2335 13.3939C30.6762 14.4091 30.6184 15.6114 29.6704 16.701C29.81 16.9281 29.9183 17.1628 30.0025 17.3937C30.1877 17.909 30.2744 18.4757 30.2744 19.0272C30.2744 19.5787 30.1877 20.1455 30.0025 20.6607C29.9086 20.9184 29.7859 21.1817 29.6175 21.4317C30.0241 22.1702 29.875 22.9946 29.6103 23.6224C29.3393 24.2424 28.9428 24.8231 28.4362 25.3418C28.5661 25.6319 28.619 25.9372 28.619 26.2292C28.619 26.8112 28.4049 27.4219 28.0103 27.9696C27.2067 29.0878 25.6115 30 23.3571 30H14.9361C13.4804 30 12.3616 29.8454 11.4088 29.584C10.5896 29.3467 9.80669 29.0369 9.07502 28.6604L8.95953 28.6031C7.7469 28.0173 6.55592 27.441 3.9839 27.2253C2.1409 27.0688 0.5 25.8895 0.5 24.2751V16.6419C0.5 15.0198 2.14812 13.9092 3.76495 13.5599C5.80766 13.1172 7.55201 12.0581 8.89456 10.8692C10.2419 9.67272 11.0937 8.42659 11.3944 7.74151C11.8732 6.64423 12.2509 4.80463 12.4242 2.799V2.79709Z" fill="white"/>
</svg>
