<svg width="31" height="30" viewBox="0 0 31 30" fill="none" xmlns="http://www.w3.org/2000/svg">
<path d="M12.423 27.2021C12.5794 28.9884 14.7133 30.3682 17.0132 29.9121L17.6411 29.788C18.2171 29.6813 18.7467 29.4542 19.1748 29.1304C19.6029 28.8066 19.914 28.3978 20.0758 27.9464C20.605 26.3892 21.358 23.1525 20.2249 19.3396C20.5521 19.3778 20.9106 19.4102 21.2907 19.4369C23.006 19.561 25.3059 19.5724 27.3436 19.0342C28.5898 18.7041 29.7349 17.7365 30.2305 16.6068C30.4786 16.0599 30.557 15.4736 30.459 14.8976C30.361 14.3216 30.0896 13.7728 29.6676 13.2976C29.8071 13.0724 29.9154 12.8358 29.9996 12.6068C30.1848 12.0915 30.2714 11.5228 30.2714 10.9732C30.2714 10.4198 30.1848 9.85491 29.9996 9.33773C29.9051 9.0715 29.7761 8.81376 29.6146 8.56866C30.0212 7.83011 29.8721 7.00378 29.6074 6.37592C29.3363 5.75662 28.9398 5.1765 28.4334 4.65837C28.5633 4.36639 28.6162 4.06105 28.6162 3.77097C28.6059 3.1589 28.3963 2.55934 28.0076 2.03052C27.2041 0.9103 25.609 0 23.3548 0H14.9346C13.4791 0 12.3604 0.152671 11.4078 0.41412C10.5885 0.652067 9.80569 0.962552 9.07417 1.33969L8.95869 1.39503C7.74618 1.98281 6.55532 2.55915 3.98356 2.77479C2.14074 2.92937 0.5 4.11066 0.5 5.72325V13.3568C0.5 14.9808 2.14795 16.0915 3.76463 16.4408C5.80713 16.8835 7.55131 17.9427 8.89373 19.1316C10.241 20.3262 11.0926 21.5743 11.3933 22.2575C11.8721 23.3548 12.2498 25.1964 12.423 27.2021Z" fill="white"/>
</svg>
